# xmcd
#
# Track frame offsets: 
#        150
#        11476
#        22008
#        33170
#        45999
#        57861
#        68271
#        78802
#        88746
#        99046
#        110170
#        120939
#        132659
#        144743
#        157696
#        196959
#        205880
#        218738
#
# Disc length: 3142 seconds
#
# Revision: 1
# Processed by: cddbd v1.5PL3 Copyright (c) Steve Scherf et al.
# Submitted via: ExactAudioCopy v0.95a5
#
DISCID=e00c4412
DTITLE=Ike Turner - Blues King Pins
DYEAR=1951
DGENRE=Blues
TTITLE0=Trouble And Heartaches
TTITLE1=You're Driving Me Insane
TTITLE2=Looking For My Baby
TTITLE3=My Heart Belongs To You
TTITLE4=The Way You Used To Treat Me
TTITLE5=Love Is Scarce
TTITLE6=Loosely
TTITLE7=Night Howler
TTITLE8=Cubano Jump
TTITLE9=Early Times
TTITLE10=Go To It (Stringing Along)
TTITLE11=Nobody Wants Me
TTITLE12=Cuban Getaway
TTITLE13=Why Don't You Believe In Me
TTITLE14=All The Blues All The Time
TTITLE15=Can't See You Baby
TTITLE16=The World Is Yours
TTITLE17=Prancing
EXTD=Ike's first record
EXTT0=
EXTT1=
EXTT2=
EXTT3=
EXTT4=
EXTT5=
EXTT6=
EXTT7=
EXTT8=
EXTT9=
EXTT10=
EXTT11=
EXTT12=
EXTT13=
EXTT14=
EXTT15=
EXTT16=
EXTT17=
PLAYORDER=
